<?xml version="1.0" encoding="UTF-8"?>
<svg xmlns="http://www.w3.org/2000/svg" width="24" height="24" viewBox="0 0 24 24" fill="none">
  <path d="M15.6853 3.51568C12.331 0.161442 6.87231 0.161442 3.51568 3.51568C0.161442 6.87111 0.161442 12.331 3.51568 15.6853C5.14117 17.3108 7.30209 18.2064 9.60108 18.2064C11.4841 18.2064 13.269 17.5967 14.7478 16.4862L20.9015 22.6398C21.1416 22.8799 21.4561 23 21.7707 23C22.0852 23 22.3997 22.8799 22.6398 22.6398C23.1201 22.1596 23.1201 21.3817 22.6398 20.9015L16.4862 14.7478C17.5967 13.2691 18.2064 11.4841 18.2064 9.60108C18.2064 7.30209 17.3108 5.14117 15.6853 3.51568ZM5.25402 13.9469C2.85779 11.5507 2.85779 7.65144 5.25402 5.25402C6.45213 4.05591 8.0272 3.45685 9.60108 3.45685C11.1749 3.45685 12.7488 4.05591 13.9469 5.25402C15.1078 6.41491 15.7477 7.95877 15.7477 9.60108C15.7477 11.2422 15.1078 12.786 13.9469 13.9469C12.786 15.1078 11.2422 15.7477 9.60108 15.7477C7.95877 15.7477 6.41491 15.1078 5.25402 13.9469Z" fill="#8C8C8C"></path>
</svg>
