<svg xmlns="http://www.w3.org/2000/svg" width="98" height="21" viewBox="0 0 98 21" fill="none"><path d="M26.2883 0L20.693 16.443H17.3647L13.1924 4.27517L8.94767 16.443H5.59531L0 0H3.25589L7.45237 12.4966L11.8177 0H14.7118L18.9806 12.5671L23.2977 0H26.2883Z" fill="#4CAF50"></path><path d="M32.5075 3.75839C34.4047 3.75839 35.8518 4.2047 36.8486 5.09732C37.8616 5.97427 38.3681 7.30537 38.3681 9.0906V16.443H35.5222V14.9161C35.1524 15.4642 34.6218 15.887 33.9304 16.1846C33.2551 16.4664 32.4351 16.6074 31.4704 16.6074C30.5057 16.6074 29.6616 16.4508 28.938 16.1376C28.2145 15.8087 27.6518 15.3624 27.2498 14.7987C26.8639 14.2192 26.671 13.5694 26.671 12.849C26.671 11.7215 27.097 10.821 27.9492 10.1477C28.8174 9.45861 30.1761 9.11409 32.0251 9.11409H35.3533V8.92618C35.3533 8.04922 35.08 7.37584 34.5333 6.90604C34.0027 6.43624 33.2069 6.20134 32.1457 6.20134C31.4222 6.20134 30.7067 6.31096 29.9992 6.5302C29.3078 6.74944 28.721 7.05481 28.2386 7.44631L27.0569 5.30872C27.7321 4.80761 28.5441 4.42394 29.4927 4.15772C30.4414 3.8915 31.4463 3.75839 32.5075 3.75839ZM32.0975 14.4698C32.8531 14.4698 33.5204 14.3054 34.0992 13.9765C34.6941 13.632 35.1122 13.1465 35.3533 12.5201V11.0638H32.2422C30.5057 11.0638 29.6374 11.6197 29.6374 12.7315C29.6374 13.264 29.8545 13.6868 30.2886 14C30.7227 14.3132 31.3257 14.4698 32.0975 14.4698Z" fill="#4CAF50"></path><path d="M52.2941 14.094V16.443H41.1759V14.5872L48.2424 6.24832H41.3206V3.89933H52.1012V5.75503L45.0106 14.094H52.2941Z" fill="#4CAF50"></path><path d="M65.1302 14.094V16.443H54.012V14.5872L61.0784 6.24832H54.1567V3.89933H64.9373V5.75503L57.8467 14.094H65.1302Z" fill="#4CAF50"></path><path d="M80.3781 3.89933V16.443H77.5081V14.8456C77.0257 15.4094 76.4228 15.8479 75.6992 16.1611C74.9757 16.4586 74.1959 16.6074 73.3598 16.6074C71.6394 16.6074 70.2808 16.1454 69.2839 15.2215C68.3031 14.2819 67.8127 12.896 67.8127 11.0638V3.89933H70.8275V10.6644C70.8275 11.7919 71.0847 12.6376 71.5992 13.2013C72.1298 13.7494 72.8775 14.0235 73.8422 14.0235C74.9194 14.0235 75.7716 13.7025 76.3986 13.0604C77.0418 12.4027 77.3634 11.4631 77.3634 10.2416V3.89933H80.3781Z" fill="#4CAF50"></path><path d="M91.4641 3.75839C92.7182 3.75839 93.8357 4.02461 94.8165 4.55705C95.8133 5.08949 96.5931 5.84116 97.1559 6.81208C97.7186 7.783 98 8.90268 98 10.1711C98 11.4396 97.7186 12.5671 97.1559 13.5537C96.5931 14.5246 95.8133 15.2763 94.8165 15.8087C93.8357 16.3412 92.7182 16.6074 91.4641 16.6074C89.7276 16.6074 88.3529 16.0436 87.34 14.9161V21H84.3253V3.89933H87.1953V5.54362C87.6937 4.94855 88.3047 4.50224 89.0282 4.2047C89.7678 3.90716 90.5798 3.75839 91.4641 3.75839ZM91.1265 14.094C92.2359 14.094 93.1443 13.7338 93.8518 13.0134C94.5753 12.2931 94.937 11.3456 94.937 10.1711C94.937 8.99664 94.5753 8.04922 93.8518 7.32886C93.1443 6.6085 92.2359 6.24832 91.1265 6.24832C90.4029 6.24832 89.7517 6.41275 89.1729 6.74161C88.5941 7.05481 88.1359 7.50895 87.7982 8.10403C87.4606 8.69911 87.2917 9.38814 87.2917 10.1711C87.2917 10.9541 87.4606 11.6432 87.7982 12.2383C88.1359 12.8333 88.5941 13.2953 89.1729 13.6242C89.7517 13.9374 90.4029 14.094 91.1265 14.094Z" fill="#4CAF50"></path></svg>